<svg t="1687510293728" class="icon" viewBox="0 0 1024 1024" version="1.1" xmlns="http://www.w3.org/2000/svg" p-id="1277" width="16" height="16"><path d="M512 224a494.08 494.08 0 0 0-440.32 273.28L64 512l7.68 14.72a491.52 491.52 0 0 0 880.64 0L960 512l-7.68-14.72A494.08 494.08 0 0 0 512 224z m0 512A430.72 430.72 0 0 1 135.04 512 429.44 429.44 0 0 1 889.6 512 432 432 0 0 1 512 736z" fill="#d81e06" p-id="1278"></path><path d="M512 327.68A184.32 184.32 0 1 0 696.32 512 184.32 184.32 0 0 0 512 327.68z m0 304.64A120.32 120.32 0 1 1 632.32 512 120.32 120.32 0 0 1 512 632.32z" fill="#d81e06" p-id="1279"></path></svg>